<svg width="25" height="25" viewBox="0 0 25 25" fill="none" xmlns="http://www.w3.org/2000/svg">
<g opacity="0.5">
<path d="M23.7792 10.3665H12.7451V14.7879H19.0853C18.9834 15.4136 18.7546 16.0292 18.4194 16.5905C18.0354 17.2335 17.5607 17.7231 17.0742 18.096C15.6167 19.2128 13.9175 19.4412 12.7374 19.4412C9.7563 19.4412 7.20917 17.5145 6.22312 14.8964C6.18333 14.8014 6.1569 14.7033 6.12473 14.6063C5.90683 13.9399 5.78778 13.2342 5.78778 12.5008C5.78778 11.7374 5.9167 11.0067 6.15177 10.3166C7.07899 7.59471 9.68354 5.56175 12.7395 5.56175C13.3542 5.56175 13.9461 5.63492 14.5074 5.78085C15.7903 6.11437 16.6977 6.77123 17.2538 7.2908L20.6088 4.00513C18.568 2.1339 15.9075 1.00003 12.7339 1.00003C10.1969 0.999973 7.85457 1.79044 5.93513 3.12636C4.37852 4.20976 3.10188 5.66029 2.2403 7.34492C1.43891 8.90691 1.00009 10.6379 1.00009 12.499C1.00009 14.3603 1.43958 16.1092 2.24097 17.6568V17.6672C3.08744 19.3101 4.32527 20.7247 5.82971 21.8032C7.14401 22.7453 9.50067 24 12.7339 24C14.5933 24 16.2412 23.6648 17.6945 23.0366C18.7429 22.5833 19.6718 21.9922 20.5128 21.2325C21.624 20.2287 22.4943 18.9871 23.0883 17.5586C23.6823 16.13 24.0001 14.5146 24.0001 12.7632C24.0001 11.9476 23.9182 11.1194 23.7792 10.3665Z" fill="black"/>
<path d="M0.867336 12.549C0.879532 14.3809 1.40151 16.2709 2.19161 17.7966V17.8071C2.7625 18.9152 3.54274 19.7904 4.43141 20.6576L9.79879 18.6992C8.78332 18.1834 8.62837 17.8673 7.90043 17.2905C7.15655 16.5404 6.60213 15.6793 6.25686 14.6696H6.24295L6.25686 14.6591C6.02971 13.9923 6.00731 13.2846 5.99893 12.549H0.867336Z" fill="url(#paint0_radial_3314_255)"/>
<path d="M12.7816 0.888273C12.2511 2.75203 12.454 4.56367 12.7816 5.61776C13.3942 5.61821 13.9844 5.69124 14.544 5.83672C15.8268 6.17023 16.7342 6.82711 17.2902 7.34668L20.7311 3.97707C18.6927 2.10807 16.2396 0.891218 12.7816 0.888273Z" fill="url(#paint1_radial_3314_255)"/>
<path d="M12.7701 0.873535C10.1679 0.873479 7.76551 1.68424 5.79679 3.05446C5.0658 3.56323 4.39499 4.15093 3.79767 4.80447C3.64119 6.27251 4.96906 8.07687 7.59866 8.06194C8.87452 6.57782 10.7615 5.61759 12.8617 5.61759C12.8636 5.61759 12.8655 5.61775 12.8674 5.61776L12.7816 0.873871C12.7777 0.873869 12.774 0.873535 12.7701 0.873535Z" fill="url(#paint2_radial_3314_255)"/>
<path d="M21.3588 13.0802L19.0361 14.6758C18.9342 15.3016 18.7052 15.9171 18.3701 16.4784C17.9861 17.1215 17.5114 17.6111 17.0248 17.9839C15.5704 19.0985 13.8756 19.3279 12.6959 19.3289C11.4764 21.4058 11.2626 22.4461 12.7816 24.1223C14.6612 24.1209 16.3275 23.7816 17.7973 23.1463C18.8598 22.687 19.8011 22.0879 20.6534 21.318C21.7795 20.3008 22.6616 19.0424 23.2636 17.5948C23.8656 16.1471 24.1875 14.51 24.1875 12.7352L21.3588 13.0802Z" fill="url(#paint3_radial_3314_255)"/>
<path d="M12.6101 10.1704V14.9278H23.7848C23.883 14.2762 24.2081 13.4331 24.2081 12.7352C24.2081 11.9195 24.1262 10.9233 23.9873 10.1704H12.6101Z" fill="#3086FF"/>
<path d="M3.85099 4.63652C3.16139 5.39103 2.57227 6.23554 2.10516 7.14887C1.30378 8.71086 0.86499 10.6098 0.86499 12.4709C0.86499 12.4972 0.867161 12.5228 0.867336 12.549C1.22224 13.2295 5.76972 13.0992 5.99893 12.549C5.99864 12.5233 5.99575 12.4983 5.99575 12.4726C5.99575 11.7092 6.12471 11.1466 6.35978 10.4565C6.64977 9.6052 7.10382 8.8213 7.68444 8.14591C7.81605 7.97787 8.16713 7.61663 8.26955 7.39996C8.30857 7.31742 8.19872 7.2711 8.19257 7.24205C8.18571 7.20956 8.03842 7.23569 8.00542 7.21148C7.90066 7.13464 7.69319 7.09451 7.56721 7.05884C7.29795 6.98259 6.8517 6.81446 6.60384 6.64017C5.82035 6.08924 4.59766 5.43117 3.85099 4.63652Z" fill="url(#paint4_radial_3314_255)"/>
<path d="M6.62066 7.2453C8.43748 8.34584 8.95996 6.6898 10.1679 6.17158L8.06666 1.81419C7.29371 2.13906 6.56343 2.54268 5.88584 3.01428C4.87392 3.71857 3.98031 4.57801 3.24213 5.55606L6.62066 7.2453Z" fill="url(#paint5_radial_3314_255)"/>
<path d="M7.36011 18.3626C4.92128 19.243 4.53946 19.2746 4.31497 20.786C4.74397 21.2047 5.20489 21.5919 5.6947 21.943C7.009 22.8851 9.53714 24.1399 12.7704 24.1399C12.7742 24.1399 12.7778 24.1396 12.7816 24.1396V19.2449C12.7792 19.2449 12.7764 19.2451 12.7739 19.2451C11.5632 19.2451 10.5957 18.9271 9.60367 18.3741C9.35909 18.2377 8.91535 18.6038 8.68978 18.4402C8.37867 18.2144 7.62995 18.6347 7.36011 18.3626Z" fill="url(#paint6_radial_3314_255)"/>
<path d="M11.3533 19.0907V24.0548C11.8057 24.1077 12.2765 24.1399 12.7704 24.1399C13.2655 24.1399 13.7445 24.1145 14.2099 24.0677V19.1242C13.6883 19.2134 13.1971 19.2451 12.7739 19.2451C12.2865 19.2451 11.8126 19.1883 11.3533 19.0907Z" fill="url(#paint7_linear_3314_255)"/>
</g>
<defs>
<radialGradient id="paint0_radial_3314_255" cx="0" cy="0" r="1" gradientTransform="matrix(-1.24914 -32.8651 44.9117 -1.9722 23.9273 23.6447)" gradientUnits="userSpaceOnUse">
<stop offset="0.141612" stop-color="#1ABD4D"/>
<stop offset="0.247515" stop-color="#6EC30D"/>
<stop offset="0.311547" stop-color="#8AC502"/>
<stop offset="0.366013" stop-color="#A2C600"/>
<stop offset="0.445673" stop-color="#C8C903"/>
<stop offset="0.540305" stop-color="#EBCB03"/>
<stop offset="0.615636" stop-color="#F7CD07"/>
<stop offset="0.699345" stop-color="#FDCD04"/>
<stop offset="0.771242" stop-color="#FDCE05"/>
<stop offset="0.860566" stop-color="#FFCE0A"/>
</radialGradient>
<radialGradient id="paint1_radial_3314_255" cx="0" cy="0" r="1" gradientTransform="matrix(22.8948 -7.02757e-05 -3.21796e-05 36.9725 23.3001 23.2616)" gradientUnits="userSpaceOnUse">
<stop offset="0.408458" stop-color="#FB4E5A"/>
<stop offset="1" stop-color="#FF4540"/>
</radialGradient>
<radialGradient id="paint2_radial_3314_255" cx="0" cy="0" r="1" gradientTransform="matrix(-29.229 19.9595 21.9681 48.9022 32.1995 -3.93481)" gradientUnits="userSpaceOnUse">
<stop offset="0.231273" stop-color="#FF4541"/>
<stop offset="0.311547" stop-color="#FF4540"/>
<stop offset="0.457516" stop-color="#FF4640"/>
<stop offset="0.540305" stop-color="#FF473F"/>
<stop offset="0.699346" stop-color="#FF5138"/>
<stop offset="0.771242" stop-color="#FF5B33"/>
<stop offset="0.860566" stop-color="#FF6C29"/>
<stop offset="1" stop-color="#FF8C18"/>
</radialGradient>
<radialGradient id="paint3_radial_3314_255" cx="0" cy="0" r="1" gradientTransform="matrix(-38.5872 -53.8564 -18.5933 15.229 3.18394 21.0984)" gradientUnits="userSpaceOnUse">
<stop offset="0.131546" stop-color="#0CBA65"/>
<stop offset="0.209784" stop-color="#0BB86D"/>
<stop offset="0.297297" stop-color="#09B479"/>
<stop offset="0.396257" stop-color="#08AD93"/>
<stop offset="0.477124" stop-color="#0AA6A9"/>
<stop offset="0.568425" stop-color="#0D9CC6"/>
<stop offset="0.667385" stop-color="#1893DD"/>
<stop offset="0.768727" stop-color="#258BF1"/>
<stop offset="0.858506" stop-color="#3086FF"/>
</radialGradient>
<radialGradient id="paint4_radial_3314_255" cx="0" cy="0" r="1" gradientTransform="matrix(-4.59592 34.2154 54.7728 5.48867 35.2165 -3.54542)" gradientUnits="userSpaceOnUse">
<stop offset="0.366013" stop-color="#FF4E3A"/>
<stop offset="0.457516" stop-color="#FF8A1B"/>
<stop offset="0.540305" stop-color="#FFA312"/>
<stop offset="0.615636" stop-color="#FFB60C"/>
<stop offset="0.771242" stop-color="#FFCD0A"/>
<stop offset="0.860566" stop-color="#FECF0A"/>
<stop offset="0.915033" stop-color="#FECF08"/>
<stop offset="1" stop-color="#FDCD01"/>
</radialGradient>
<radialGradient id="paint5_radial_3314_255" cx="0" cy="0" r="1" gradientTransform="matrix(-14.219 18.3217 -44.3556 -46.7255 22.7031 5.30085)" gradientUnits="userSpaceOnUse">
<stop offset="0.315904" stop-color="#FF4C3C"/>
<stop offset="0.603818" stop-color="#FF692C"/>
<stop offset="0.726837" stop-color="#FF7825"/>
<stop offset="0.884534" stop-color="#FF8D1B"/>
<stop offset="1" stop-color="#FF9F13"/>
</radialGradient>
<radialGradient id="paint6_radial_3314_255" cx="0" cy="0" r="1" gradientTransform="matrix(-31.3538 -24.7509 23.565 -60.6413 33.0169 29.822)" gradientUnits="userSpaceOnUse">
<stop offset="0.231273" stop-color="#0FBC5F"/>
<stop offset="0.311547" stop-color="#0FBC5F"/>
<stop offset="0.366013" stop-color="#0FBC5E"/>
<stop offset="0.457516" stop-color="#0FBC5D"/>
<stop offset="0.540305" stop-color="#12BC58"/>
<stop offset="0.699346" stop-color="#28BF3C"/>
<stop offset="0.771242" stop-color="#38C02B"/>
<stop offset="0.860566" stop-color="#52C218"/>
<stop offset="0.915033" stop-color="#67C30F"/>
<stop offset="1" stop-color="#86C504"/>
</radialGradient>
<linearGradient id="paint7_linear_3314_255" x1="11.3533" y1="21.6153" x2="14.2099" y2="21.6153" gradientUnits="userSpaceOnUse">
<stop stop-color="#0FBC5C"/>
<stop offset="1" stop-color="#0CBA65"/>
</linearGradient>
</defs>
</svg>
