<svg width="34" height="27" viewBox="0 0 34 27" fill="none" xmlns="http://www.w3.org/2000/svg">
<path d="M6.27778 6.28571L14.082 12.2158L14.0846 12.2179C14.9511 12.8574 15.3847 13.1773 15.8595 13.3008C16.2792 13.4101 16.7204 13.4101 17.1401 13.3008C17.6154 13.1772 18.0502 12.8563 18.9183 12.2158C18.9183 12.2158 23.924 8.35049 26.7222 6.28571M5 18.886V9.11454C5 7.6744 5 6.9538 5.27854 6.40374C5.52355 5.91989 5.91422 5.5268 6.39507 5.28027C6.94174 5 7.65789 5 9.08914 5H23.9114C25.3426 5 26.0572 5 26.6039 5.28027C27.0848 5.5268 27.4767 5.91989 27.7217 6.40374C28 6.95326 28 7.67299 28 9.11031V18.8903C28 20.3276 28 21.0463 27.7217 21.5958C27.4767 22.0797 27.0848 22.4735 26.6039 22.72C26.0578 23 25.3435 23 23.9151 23H9.08494C7.65649 23 6.9412 23 6.39507 22.72C5.91422 22.4735 5.52355 22.0797 5.27854 21.5958C5 21.0458 5 20.3261 5 18.886Z" stroke="#F5F5F5" stroke-width="2" stroke-linecap="round" stroke-linejoin="round"/>
</svg>
